<?xml version="1.0" encoding="UTF-8" standalone="no"?>
<svg width="72px" height="72px" viewBox="0 0 72 72" version="1.1" xmlns="http://www.w3.org/2000/svg" xmlns:xlink="http://www.w3.org/1999/xlink" xmlns:sketch="http://www.bohemiancoding.com/sketch/ns">
    <!-- Generator: Sketch 3.3.3 (12072) - http://www.bohemiancoding.com/sketch -->
    <title>linkedin copy</title>
    <desc>Created with Sketch.</desc>
    <defs></defs>
    <g id="providers-list" stroke="none" stroke-width="1" fill="none" fill-rule="evenodd" sketch:type="MSPage">
        <g id="linkedin-copy" sketch:type="MSLayerGroup">
            <rect id="Rectangle-2" fill="#117EB8" sketch:type="MSShapeGroup" x="0" y="0" width="72" height="72"></rect>
            <path d="M21.1918685,30.8640656 L27.5395692,30.8640656 L27.5395692,51.2880313 L21.1918685,51.2880313 L21.1918685,30.8640656 Z M24.3670562,20.7116715 C26.3962758,20.7116715 28.0453881,22.3608412 28.0453881,24.3910228 C28.0453881,26.4229876 26.3962758,28.0721572 24.3670562,28.0721572 C22.3324873,28.0721572 20.6857524,26.4229876 20.6857524,24.3910228 C20.6860496,22.3608412 22.3327844,20.7116715 24.3670562,20.7116715 Z M31.5210358,30.8640656 L37.6089916,30.8640656 L37.6089916,33.6547851 L37.6939882,33.6547851 C38.5415767,32.0490069 40.6118085,30.3561486 43.6999193,30.3561486 C50.1275643,30.3561486 51.3142476,34.5865109 51.3142476,40.0853281 L51.3142476,51.2880313 L44.9710048,51.2880313 L44.9710048,41.3558633 C44.9710048,38.9874668 44.9276149,35.940857 41.6724829,35.940857 C38.3698003,35.940857 37.8627926,38.5208608 37.8627926,41.1846754 L37.8627926,51.2883285 L31.5207386,51.2883285 L31.5207386,30.8640656 L31.5210358,30.8640656 Z" id="Shape" fill="#FFFFFF" sketch:type="MSShapeGroup"></path>
        </g>
    </g>
</svg>