<?xml version="1.0" encoding="utf-8"?>
<!-- Generator: Adobe Illustrator 17.1.0, SVG Export Plug-In . SVG Version: 6.00 Build 0)  -->
<!DOCTYPE svg PUBLIC "-//W3C//DTD SVG 1.1//EN" "http://www.w3.org/Graphics/SVG/1.1/DTD/svg11.dtd">
<svg version="1.1" id="Layer_1" xmlns="http://www.w3.org/2000/svg" xmlns:xlink="http://www.w3.org/1999/xlink" x="0px" y="0px"
	 viewBox="0 0 2600 930" enable-background="new 0 0 2600 930" xml:space="preserve">
<g>
	<g>
		<path fill="#42A7DE" d="M977.9,415.9c0-41.2-1.5-75.9-2.9-106.8h78.8l4.4,53.8h2.2c16.2-28,55.2-61.9,114.9-61.9
			c62.6,0,127.4,40.5,127.4,153.9v212.8h-90.6V465.2c0-51.6-19.1-90.6-68.5-90.6c-36.1,0-61.1,25.8-70.7,53
			c-3,7.4-4.4,18.4-4.4,28.7v211.4h-90.6V415.9z"/>
		<path fill="#42A7DE" d="M1467.9,513.9c2.2,64.8,52.3,92.8,110.5,92.8c42,0,71.4-6.6,99.4-16.2l13.3,61.9
			c-30.9,13.3-73.7,22.8-125.2,22.8c-116.4,0-184.8-71.4-184.8-181.2c0-99.4,60.4-193,175.3-193c116.4,0,154.7,95.7,154.7,174.6
			c0,16.9-1.5,30.2-2.9,38.3H1467.9z M1625.5,450.5c0.7-33.2-14-87.7-74.4-87.7c-56,0-79.5,50.8-83.2,87.7H1625.5z"/>
		<path fill="#42A7DE" d="M1895.2,217.1v92.1h86.2v67.8h-86.2v158.3c0,44.2,11.8,66.3,46.4,66.3c16.2,0,25-0.8,35.4-3.7l1.5,68.5
			c-13.3,5.1-37.6,9.6-65.5,9.6c-33.9,0-61.1-11.1-78.1-29.5c-19.9-20.6-28.7-53.8-28.7-100.9V376.9h-50.8v-67.8h50.8v-67
			L1895.2,217.1z"/>
		<path fill="#42A7DE" d="M2050.7,424.7c0-48.6-0.7-84-3-115.6h78.1l3.7,67.8h2.2c17.7-50.1,59.7-75.9,98.7-75.9
			c8.8,0,14,0.7,21.3,2.2v84.7c-8.1-1.5-16.2-2.2-27.3-2.2c-42.7,0-72.9,27.3-81,68.5c-1.5,8.1-2.2,17.7-2.2,27.2v186.3h-90.6V424.7
			z"/>
		<path fill="#42A7DE" d="M2594.1,581.6c0,32.4,1.5,64.1,5.9,86.2h-81.8l-6.6-39.8h-2.2c-21.4,28-58.9,47.9-106.1,47.9
			c-72.2,0-112.7-52.3-112.7-106.8c0-89.9,80.3-136.2,212.8-135.5v-5.9c0-23.6-9.6-62.6-72.9-62.6c-35.3,0-72.2,11.1-96.5,26.5
			l-17.7-58.9c26.5-16.2,72.9-31.7,129.6-31.7c114.9,0,148,72.9,148,151.7V581.6z M2505.7,492.5c-64.1-0.7-125.2,12.5-125.2,67
			c0,35.3,22.8,51.5,51.6,51.5c36.8,0,62.6-23.6,71.4-49.3c2.2-6.6,2.2-13.3,2.2-19.9V492.5z"/>
	</g>
	<linearGradient id="SVGID_1_" gradientUnits="userSpaceOnUse" x1="375.2182" y1="305.674" x2="167.5602" y2="844.1793">
		<stop  offset="0" style="stop-color:#2957A6"/>
		<stop  offset="5.434150e-02" style="stop-color:#2960AC"/>
		<stop  offset="0.1924" style="stop-color:#2974B9"/>
		<stop  offset="0.3359" style="stop-color:#2985C6"/>
		<stop  offset="0.484" style="stop-color:#2793D1"/>
		<stop  offset="0.6388" style="stop-color:#269ED9"/>
		<stop  offset="0.8045" style="stop-color:#26A4DD"/>
		<stop  offset="1" style="stop-color:#26A6DF"/>
	</linearGradient>
	<path fill-rule="evenodd" clip-rule="evenodd" fill="url(#SVGID_1_)" d="M594.8,708.4C446.2,816.3,269.8,896.4,46,929V751.4
		c40.9,14.6,64.3,29.4,102.5,34.2c486.7,60.7,455.2-692.1,0-628.5c-33.4,4.7-57.4,12.1-95.6,34.2c-1.3-4.1-2.4-8.4-3.3-12.9
		c31.5-14.6,57.4-21.1,89.8-25.7C504.6,101.6,665.6,444.4,594.8,708.4z"/>
	<path fill-rule="evenodd" clip-rule="evenodd" fill="#26A6DF" d="M851.6,471.1c-77.8,87-161.9,167.8-257.4,237.1
		c70.9-264-90.1-606.8-455.4-555.8c-32.5,4.5-58.4,11.1-89.8,25.7C38.5,127.9,49.6,56.2,45.5-0.3C403.7,67.4,665,231.9,851.6,471.1z
		"/>
	<linearGradient id="SVGID_2_" gradientUnits="userSpaceOnUse" x1="78.9741" y1="515.0364" x2="185.0665" y2="297.5146">
		<stop  offset="0" style="stop-color:#2957A6"/>
		<stop  offset="3.879529e-02" style="stop-color:#2964AE"/>
		<stop  offset="9.684277e-02" style="stop-color:#2974BA"/>
		<stop  offset="0.1627" style="stop-color:#2983C5"/>
		<stop  offset="0.2371" style="stop-color:#2890CE"/>
		<stop  offset="0.3239" style="stop-color:#279AD6"/>
		<stop  offset="0.4312" style="stop-color:#26A1DB"/>
		<stop  offset="0.5819" style="stop-color:#26A5DE"/>
		<stop  offset="1" style="stop-color:#26A6DF"/>
	</linearGradient>
	<path fill="url(#SVGID_2_)" d="M192.1,533.1c-1.5,0.3-2.9,0.6-4.4,0.9c-1.2,0.2-2.4,0.5-3.7,0.6c-1.2,0.2-2.5,0.4-3.8,0.6
		c-0.1,0-0.2,0-0.3,0.1c-1.2,0.2-2.4,0.3-3.7,0.4c-0.3,0.1-0.6,0.1-0.8,0.1c-1.2,0.1-2.5,0.2-3.7,0.3c-1.1,0.1-2.2,0.2-3.4,0.2
		c-0.5,0-1,0-1.4,0.1c-1.2,0.1-2.3,0.1-3.4,0.1c-1.4,0.1-2.8,0.1-4.1,0.1c-2.8,0-5.6-0.1-8.4-0.2c-23.9-1.3-47.9-8.1-70.1-20.9
		c-2.5-1.4-4.9-2.9-7.3-4.5c-0.7-0.4-1.3-0.9-2-1.3c-1.8-1.2-3.6-2.5-5.3-3.8c-1.2-0.9-2.3-1.7-3.4-2.6c-1.4-1.1-2.8-2.2-4.2-3.4
		c-1.4-1.2-2.7-2.3-4.1-3.5c-0.8-0.7-1.5-1.3-2.2-2.1c-0.1-0.1-0.1-0.1-0.2-0.2c-1.4-1.3-2.8-2.7-4.1-4c-1.4-1.4-2.8-2.8-4.1-4.3
		c-0.7-0.7-1.4-1.5-2.1-2.3c-0.7-0.7-1.3-1.5-2-2.3c-0.7-0.8-1.4-1.7-2.1-2.5c0,0,0,0-0.1-0.1c0,0-0.1-0.1-0.1-0.1
		c-0.8-1-1.7-2-2.4-3.1c-0.8-1.1-1.7-2.2-2.4-3.2c-0.8-1.1-1.6-2.2-2.3-3.3c-0.7-1.1-1.5-2.2-2.2-3.3c-0.7-1-1.3-2-2-3.1
		c-0.8-1.3-1.6-2.7-2.4-4c-2.1-3.5-4-7.1-5.7-10.8c-0.5-1-1-2-1.5-3.1c-1.1-2.4-2.1-4.8-3.1-7.2c-0.5-1.4-1.1-2.8-1.6-4.1
		c-0.5-1.5-1-2.9-1.5-4.4c-0.5-1.5-0.9-2.9-1.4-4.4c-0.5-1.7-1-3.3-1.4-5v0C25.8,351.5,79.6,297.7,148,279.4
		c-28.6,28.4-46.3,67.8-46.3,111.4c0,1.2,0,2.4,0,3.6v0.4c0.1,1.2,0.1,2.3,0.2,3.5c0,0.9,0.1,1.8,0.2,2.7c0.2,2.9,0.4,5.8,0.8,8.6
		c0.1,1.1,0.2,2.1,0.4,3.2c0,0.2,0,0.3,0.1,0.5c0.2,1.2,0.3,2.3,0.6,3.4c0.2,1,0.3,2,0.5,3c0.1,0.8,0.3,1.5,0.4,2.2
		c1.8,9.1,4.5,17.9,7.8,26.3c0.3,0.8,0.6,1.6,1,2.4c0.6,1.3,1.1,2.6,1.7,3.9c0.5,1.1,1,2.2,1.5,3.2c0.5,1.1,1,2.2,1.6,3.2
		c0.1,0.3,0.3,0.6,0.4,0.8v0c0.2,0.5,0.5,1,0.7,1.5c0.2,0.4,0.4,0.8,0.7,1.2c1,1.9,2.1,3.8,3.2,5.7c1.3,2.2,2.6,4.3,4,6.4
		c0.6,0.9,1.2,1.7,1.7,2.6c0.7,1,1.3,1.9,2,2.9c0.7,0.9,1.4,1.9,2.1,2.8c0.7,1,1.5,1.9,2.2,2.9c0.7,0.9,1.4,1.7,2.1,2.6
		c0.7,0.9,1.5,1.8,2.3,2.7c0.8,0.9,1.5,1.7,2.3,2.6C156,511.5,173,524.2,192.1,533.1z"/>
	<linearGradient id="SVGID_3_" gradientUnits="userSpaceOnUse" x1="342.9867" y1="368.8869" x2="101.0088" y2="390.0573">
		<stop  offset="0" style="stop-color:#26A6DF"/>
		<stop  offset="0.4181" style="stop-color:#26A5DE"/>
		<stop  offset="0.5688" style="stop-color:#26A1DB"/>
		<stop  offset="0.6761" style="stop-color:#279AD6"/>
		<stop  offset="0.7629" style="stop-color:#2890CE"/>
		<stop  offset="0.8373" style="stop-color:#2983C5"/>
		<stop  offset="0.9032" style="stop-color:#2974BA"/>
		<stop  offset="0.9612" style="stop-color:#2964AE"/>
		<stop  offset="1" style="stop-color:#2957A6"/>
	</linearGradient>
	<path fill="url(#SVGID_3_)" d="M339.7,330.9c-38.9-10.5-81.9-6.2-119.6,15.6c-1.1,0.6-2.2,1.2-3.2,1.9c-1.1,0.7-2.2,1.3-3.3,2
		c-0.9,0.6-1.8,1.2-2.7,1.8c-0.1,0.1-0.2,0.2-0.4,0.2c-1,0.7-2,1.3-2.9,2c-0.4,0.2-0.8,0.5-1.1,0.8c-1.4,1-2.9,2.1-4.2,3.2
		c-5.1,4-9.9,8.2-14.4,12.6c-0.9,0.8-1.7,1.7-2.5,2.6c-1,1-1.9,2-2.8,3c-0.7,0.8-1.4,1.5-2,2.3c-0.8,0.9-1.6,1.8-2.3,2.7
		c-1.5,1.8-3,3.6-4.4,5.5c-0.2,0.3-0.5,0.6-0.7,0.9c-1.2,1.7-2.4,3.3-3.6,5c-0.7,1-1.4,2-2,2.9c-0.2,0.3-0.4,0.7-0.7,1
		c-0.2,0.3-0.3,0.5-0.5,0.8c-0.2,0.3-0.3,0.6-0.5,0.8c-0.1,0.1-0.1,0.2-0.2,0.3c-0.6,1-1.2,2-1.8,3c-0.6,1-1.2,2-1.8,3.1
		c-0.6,1.1-1.2,2.2-1.9,3.4c-0.5,1-1,1.9-1.5,2.8c-0.5,1.1-1.1,2.1-1.6,3.2c-0.5,1.1-1,2.1-1.5,3.2c-0.4,1-0.9,2-1.3,2.9
		c-0.6,1.3-1.1,2.6-1.6,3.9c-0.3,0.8-0.6,1.6-0.9,2.4c-0.5,1.3-0.9,2.5-1.4,3.8c-0.4,1.1-0.7,2.1-1.1,3.2c0,0,0,0,0,0.1
		c-6.5,19.8-9,40.9-7.2,61.9c-0.8-0.9-1.6-1.7-2.3-2.6c-0.8-0.9-1.5-1.8-2.3-2.7c-0.7-0.9-1.4-1.7-2.1-2.6c-0.8-1-1.5-1.9-2.2-2.9
		c-0.7-0.9-1.4-1.9-2.1-2.8c-0.7-1-1.4-1.9-2-2.9c-0.6-0.9-1.2-1.7-1.7-2.6c-1.3-2.1-2.7-4.2-4-6.4c-1.1-1.9-2.2-3.8-3.2-5.7
		c-0.2-0.4-0.4-0.8-0.7-1.2c-0.2-0.5-0.5-1-0.7-1.5v0c-0.2-0.3-0.3-0.5-0.4-0.8c-0.5-1-1.1-2.1-1.6-3.2c-0.5-1.1-1-2.2-1.5-3.2
		c-0.6-1.3-1.1-2.6-1.7-3.9c-0.3-0.8-0.7-1.6-1-2.4c-3.3-8.4-5.9-17.2-7.8-26.3c-0.1-0.8-0.3-1.5-0.4-2.2c-0.2-1-0.4-2-0.5-3
		c-0.2-1.2-0.4-2.3-0.6-3.4c0-0.2,0-0.3-0.1-0.5c-0.2-1.1-0.3-2.1-0.4-3.2c-0.3-2.8-0.6-5.7-0.8-8.6c-0.1-0.9-0.1-1.8-0.2-2.7
		c-0.1-1.2-0.1-2.3-0.2-3.5v-0.4c0-1.2,0-2.4,0-3.6c0-43.5,17.7-82.9,46.3-111.4c16.3-4.4,33.5-6.7,51.3-6.7
		C254.1,272.7,303.8,295,339.7,330.9z"/>
	<linearGradient id="SVGID_4_" gradientUnits="userSpaceOnUse" x1="172.7964" y1="599.1376" x2="53.837" y2="393.0938">
		<stop  offset="0" style="stop-color:#2957A6"/>
		<stop  offset="3.879529e-02" style="stop-color:#2964AE"/>
		<stop  offset="9.684277e-02" style="stop-color:#2974BA"/>
		<stop  offset="0.1627" style="stop-color:#2983C5"/>
		<stop  offset="0.2371" style="stop-color:#2890CE"/>
		<stop  offset="0.3239" style="stop-color:#279AD6"/>
		<stop  offset="0.4312" style="stop-color:#26A1DB"/>
		<stop  offset="0.5819" style="stop-color:#26A5DE"/>
		<stop  offset="1" style="stop-color:#26A6DF"/>
	</linearGradient>
	<path fill="url(#SVGID_4_)" d="M249.3,508.4c-0.1,0.4-0.2,0.8-0.4,1.2c-0.5,1.5-1,3.1-1.6,4.6c-0.3,0.8-0.6,1.6-0.9,2.3
		c-0.9,2.4-1.9,4.7-2.9,7c-0.3,0.8-0.7,1.5-1.1,2.3c-0.7,1.6-1.4,3.1-2.2,4.6c-0.4,0.8-0.8,1.5-1.2,2.2c-0.4,0.8-0.8,1.5-1.2,2.3
		c-0.8,1.5-1.7,3-2.5,4.4c-0.6,1-1.2,2-1.7,2.9c-0.3,0.5-0.6,1-0.9,1.4c-0.4,0.6-0.8,1.2-1.1,1.8c-0.6,0.9-1.2,1.8-1.8,2.7
		c-0.4,0.6-0.8,1.2-1.3,1.9c-1,1.4-2,2.8-3,4.2c-0.4,0.5-0.8,1.1-1.2,1.6c-1.7,2.2-3.5,4.4-5.4,6.6c-0.5,0.6-1,1.2-1.5,1.7
		c-0.9,1.1-1.9,2.1-2.9,3.2c-0.4,0.5-0.8,0.9-1.3,1.3c-0.8,0.9-1.7,1.7-2.5,2.6c-1.4,1.4-2.8,2.8-4.3,4.1c-0.6,0.6-1.2,1.2-1.9,1.7
		c-2,1.8-4.1,3.5-6.2,5.2c-0.7,0.5-1.3,1.1-2,1.6c-0.1,0.1-0.3,0.2-0.4,0.3c-1.3,1-2.5,1.9-3.8,2.8c-0.4,0.3-0.7,0.5-1.1,0.8
		c-1,0.7-1.9,1.3-2.9,2c-0.1,0.1-0.2,0.2-0.4,0.2c-0.9,0.6-1.8,1.2-2.8,1.8c-1.1,0.7-2.1,1.4-3.2,2c-1,0.6-2.1,1.3-3.2,1.9
		c-15.5,8.9-31.8,14.9-48.4,18.2c-3.3,0.7-6.6,1.2-10,1.6c-6.7,0.8-13.3,1.3-20,1.3c-3.1,0-6.1-0.1-9.2-0.3c-0.7,0-1.5-0.1-2.2-0.2
		c-1.4-0.1-2.7-0.2-4.1-0.3c-1.7-0.2-3.4-0.4-5.1-0.6c-1.7-0.2-3.4-0.5-5.1-0.8c0,0-0.1,0-0.1,0c-3.4-0.6-6.8-1.2-10.1-2
		c-1.7-0.4-3.4-0.8-5-1.3C23,575.6,0.8,526,0.8,471.2c0-17.8,2.3-35,6.7-51.4c0.5,1.6,0.9,3.3,1.4,5c0.5,1.5,0.9,3,1.4,4.4
		c0.5,1.5,1,2.9,1.5,4.4c0.5,1.4,1.1,2.8,1.6,4.1c1,2.4,2,4.8,3.1,7.2c0.5,1,1,2.1,1.5,3.1c1.7,3.7,3.7,7.3,5.7,10.8
		c0.8,1.3,1.6,2.7,2.4,4c0.7,1,1.3,2.1,2,3.1c0.8,1.1,1.5,2.2,2.2,3.3c0.7,1.1,1.5,2.2,2.3,3.3c0.8,1.1,1.6,2.2,2.4,3.2
		c0.8,1,1.6,2,2.4,3.1c0,0,0,0.1,0.1,0.1c0,0,0,0,0.1,0.1c0.7,0.8,1.4,1.7,2.1,2.5c0.6,0.8,1.3,1.5,2,2.3c0.7,0.8,1.4,1.5,2.1,2.3
		c1.3,1.5,2.7,2.9,4.1,4.3c1.3,1.3,2.7,2.7,4.1,4c0.1,0,0.1,0.1,0.2,0.2c0.7,0.7,1.5,1.4,2.2,2.1c1.3,1.2,2.7,2.3,4.1,3.5
		c1.4,1.2,2.8,2.3,4.2,3.4c1.1,0.9,2.3,1.8,3.4,2.6c1.7,1.3,3.5,2.6,5.3,3.8c0.7,0.4,1.3,0.9,2,1.3c2.4,1.6,4.8,3.1,7.3,4.5
		c22.2,12.8,46.1,19.6,70.1,20.9c2.8,0.2,5.6,0.2,8.4,0.2c1.4,0,2.8,0,4.1-0.1c1.1,0,2.2-0.1,3.4-0.1c0.5,0,1,0,1.4-0.1
		c1.2-0.1,2.3-0.2,3.4-0.2c1.2-0.1,2.5-0.2,3.7-0.3c0.3-0.1,0.6-0.1,0.8-0.1c1.2-0.1,2.4-0.2,3.7-0.4c0.1,0,0.2,0,0.3-0.1
		c1.3-0.2,2.5-0.3,3.8-0.6c1.3-0.2,2.5-0.4,3.7-0.6c1.5-0.2,2.9-0.6,4.4-0.9C212.5,528.8,232,520.5,249.3,508.4z"/>
	<linearGradient id="SVGID_5_" gradientUnits="userSpaceOnUse" x1="242.8674" y1="660.7863" x2="311.8154" y2="420.336">
		<stop  offset="0" style="stop-color:#26A6DF"/>
		<stop  offset="0.4181" style="stop-color:#26A5DE"/>
		<stop  offset="0.5688" style="stop-color:#26A1DB"/>
		<stop  offset="0.6761" style="stop-color:#279AD6"/>
		<stop  offset="0.7629" style="stop-color:#2890CE"/>
		<stop  offset="0.8373" style="stop-color:#2983C5"/>
		<stop  offset="0.9032" style="stop-color:#2974BA"/>
		<stop  offset="0.9612" style="stop-color:#2964AE"/>
		<stop  offset="1" style="stop-color:#2957A6"/>
	</linearGradient>
	<path fill="url(#SVGID_5_)" d="M391,522.8c-18.3,68.3-72.1,122-140.4,140.2c1.2-1.2,2.4-2.4,3.6-3.7c0.8-0.8,1.6-1.7,2.4-2.6
		c0.6-0.7,1.2-1.4,1.8-2.1c0.8-1,1.7-1.9,2.5-2.9c2.4-2.9,4.7-5.9,6.9-9c0.7-0.9,1.3-1.9,2-2.9c2.9-4.2,5.6-8.7,8.1-13.2
		c0.5-0.9,1-1.7,1.4-2.7c0.3-0.5,0.5-1,0.8-1.5c0.4-0.8,0.8-1.7,1.2-2.5c1.9-4,3.7-8.1,5.3-12.3c0.5-1.3,1-2.6,1.4-3.8
		c0.4-1.1,0.8-2.2,1.2-3.4c2.6-7.9,4.6-16,5.9-24.4c0.2-1.2,0.4-2.5,0.5-3.7c0.1-0.9,0.2-1.8,0.3-2.7c0.1-0.9,0.2-1.8,0.3-2.7
		c0.2-1.4,0.2-2.7,0.3-4.1c0.1-1,0.1-1.9,0.2-2.9v-0.3c0.1-1.3,0.1-2.6,0.2-3.9c0-1.3,0.1-2.7,0.1-4.1c0-1.2,0-2.4,0-3.6v-0.4
		c-0.1-1.2-0.1-2.3-0.2-3.5c0-0.9-0.1-1.8-0.2-2.7c-0.2-2.9-0.4-5.8-0.8-8.6c-0.2-1.1-0.3-2.1-0.4-3.2c0-0.2,0-0.3-0.1-0.5
		c-0.2-1.2-0.3-2.3-0.6-3.5c-0.2-1.2-0.4-2.4-0.7-3.6c-0.2-1.2-0.4-2.4-0.7-3.6c-0.8-3.6-1.7-7.1-2.7-10.5c-0.9-3.2-1.9-6.4-3.1-9.5
		c-0.1-0.4-0.2-0.7-0.4-1.1c-0.8-2.1-1.6-4.2-2.5-6.3c-1.5-3.7-3.2-7.4-5-10.9c-0.3-0.6-0.7-1.3-1-1.9c0,0,0,0,0,0
		c-1.1-2.1-2.2-4.1-3.4-6.1c-0.6-1-1.2-2-1.8-3c-0.7-1-1.3-2-1.9-3c-0.6-1-1.3-2-2-3c-1.3-1.9-2.7-3.8-4.1-5.7c0,0,0,0,0-0.1
		c-1.4-1.9-2.8-3.7-4.3-5.5c-0.7-0.9-1.5-1.8-2.3-2.7c-0.8-0.9-1.5-1.7-2.3-2.6c-14-15.5-30.9-28.2-50.1-37.2
		c1.4-0.3,2.8-0.6,4.2-0.8c1.3-0.2,2.6-0.5,3.9-0.7c1.2-0.2,2.5-0.4,3.7-0.6c0.1,0,0.2,0,0.3,0c2.7-0.4,5.4-0.7,8.2-0.9
		c1.1-0.1,2.3-0.2,3.4-0.2c0.5,0,1,0,1.5-0.1c1.1-0.1,2.2-0.1,3.4-0.1c1.4,0,2.8-0.1,4.2-0.1c2.7,0,5.3,0.1,8,0.2
		c24.1,1.2,48.2,8,70.5,20.9c3,1.7,5.9,3.5,8.7,5.4c1.3,0.8,2.5,1.7,3.8,2.6c0,0,0.1,0,0.1,0.1c1.3,0.9,2.6,1.9,3.9,2.9
		c0.1,0.1,0.2,0.2,0.3,0.2c2.1,1.6,4.2,3.3,6.2,5c0.4,0.3,0.8,0.6,1.1,0.9c1.1,0.9,2.2,1.9,3.2,2.9c9.2,8.4,17.3,17.7,24.1,27.8
		c0.7,1,1.3,1.9,1.9,2.9c0.1,0.2,0.3,0.4,0.4,0.7c0.6,0.9,1.1,1.8,1.7,2.7c0.1,0.2,0.2,0.4,0.3,0.6c0.6,1,1.2,1.9,1.7,2.9
		c1.3,2.2,2.5,4.4,3.6,6.7c0.6,1.1,1.2,2.2,1.7,3.4c0.6,1.1,1.1,2.3,1.6,3.4c0.5,1.2,1,2.3,1.5,3.5C386.6,508.3,389,515.4,391,522.8
		z"/>
	<linearGradient id="SVGID_6_" gradientUnits="userSpaceOnUse" x1="385.2487" y1="528.2795" x2="211.4712" y2="348.3276">
		<stop  offset="0" style="stop-color:#26A6DF"/>
		<stop  offset="0.4181" style="stop-color:#26A5DE"/>
		<stop  offset="0.5688" style="stop-color:#26A1DB"/>
		<stop  offset="0.6761" style="stop-color:#279AD6"/>
		<stop  offset="0.7629" style="stop-color:#2890CE"/>
		<stop  offset="0.8373" style="stop-color:#2983C5"/>
		<stop  offset="0.9032" style="stop-color:#2974BA"/>
		<stop  offset="0.9612" style="stop-color:#2964AE"/>
		<stop  offset="1" style="stop-color:#2957A6"/>
	</linearGradient>
	<path fill="url(#SVGID_6_)" d="M339.7,330.9c35.9,35.9,58.1,85.5,58.1,140.3c0,17.8-2.3,35.1-6.8,51.6c-1.9-7.3-4.4-14.5-7.4-21.5
		c-0.5-1.2-1-2.3-1.5-3.5c-0.5-1.2-1.1-2.3-1.6-3.4c-0.5-1.2-1.1-2.3-1.7-3.4c-1.1-2.3-2.3-4.5-3.6-6.7c-0.6-1-1.1-1.9-1.7-2.9
		c-0.1-0.2-0.2-0.4-0.3-0.6c-0.5-0.9-1.1-1.8-1.7-2.7c-0.2-0.2-0.3-0.4-0.4-0.7c-0.6-1-1.3-1.9-1.9-2.9c-6.8-10-14.9-19.4-24.1-27.8
		c-1.1-1-2.2-1.9-3.2-2.9c-0.4-0.3-0.8-0.6-1.1-0.9c-2-1.7-4.1-3.3-6.2-5c-0.1-0.1-0.2-0.2-0.3-0.2c-1.3-1-2.6-1.9-3.9-2.9
		c0,0-0.1-0.1-0.1-0.1c-1.2-0.9-2.5-1.7-3.8-2.6c-2.8-1.9-5.7-3.7-8.7-5.4c-22.3-12.9-46.4-19.7-70.5-20.9c-2.6-0.1-5.3-0.2-8-0.2
		c-1.4,0-2.7,0-4.2,0.1c-1.1,0-2.2,0.1-3.4,0.1c-0.5,0-1,0.1-1.5,0.1c-1.1,0.1-2.3,0.2-3.4,0.2c-2.7,0.2-5.5,0.5-8.2,0.9
		c-0.1,0-0.2,0-0.3,0c-1.2,0.2-2.5,0.3-3.7,0.6c-1.3,0.2-2.6,0.4-3.9,0.7c-1.4,0.3-2.8,0.5-4.2,0.8c-20.4,4.3-39.9,12.7-57.2,24.7
		c0,0,0,0,0-0.1c0.4-1.1,0.7-2.2,1.1-3.2c0.5-1.3,0.9-2.6,1.4-3.8c0.3-0.8,0.6-1.6,0.9-2.4c0.5-1.3,1-2.6,1.6-3.9
		c0.4-1,0.9-1.9,1.3-2.9c0.5-1.1,1-2.1,1.5-3.2c0.5-1.1,1-2.1,1.6-3.2c0.5-0.9,1-1.9,1.5-2.8c0.6-1.1,1.2-2.2,1.9-3.4
		c0.6-1,1.2-2,1.8-3.1c0.6-1,1.2-2,1.8-3c0.1-0.1,0.2-0.3,0.2-0.3c0.2-0.2,0.3-0.5,0.5-0.8c0.2-0.3,0.3-0.6,0.5-0.8
		c0.2-0.3,0.4-0.7,0.7-1c0.7-1,1.3-2,2-2.9c1.2-1.7,2.3-3.3,3.6-5c0.3-0.3,0.5-0.6,0.7-0.9c1.4-1.8,2.9-3.7,4.4-5.5
		c0.8-0.9,1.5-1.8,2.3-2.7c0.6-0.8,1.3-1.5,2-2.3c0.9-1,1.9-2,2.8-3c0.8-0.8,1.7-1.7,2.5-2.6c4.5-4.5,9.3-8.7,14.4-12.6
		c1.4-1.1,2.8-2.2,4.2-3.2c0.4-0.2,0.8-0.5,1.1-0.8c0.9-0.7,1.9-1.4,2.9-2c0.1-0.1,0.3-0.2,0.4-0.2c0.9-0.6,1.8-1.2,2.7-1.8
		c1.1-0.7,2.2-1.4,3.3-2c1-0.7,2.1-1.3,3.2-1.9C257.8,324.8,300.7,320.4,339.7,330.9z"/>
	<linearGradient id="SVGID_7_" gradientUnits="userSpaceOnUse" x1="58.9639" y1="558.0605" x2="296.8174" y2="558.0605">
		<stop  offset="0" style="stop-color:#26A6DF"/>
		<stop  offset="0.4181" style="stop-color:#26A5DE"/>
		<stop  offset="0.5688" style="stop-color:#26A1DB"/>
		<stop  offset="0.6761" style="stop-color:#279AD6"/>
		<stop  offset="0.7629" style="stop-color:#2890CE"/>
		<stop  offset="0.8373" style="stop-color:#2983C5"/>
		<stop  offset="0.9032" style="stop-color:#2974BA"/>
		<stop  offset="0.9612" style="stop-color:#2964AE"/>
		<stop  offset="1" style="stop-color:#2957A6"/>
	</linearGradient>
	<path fill="url(#SVGID_7_)" d="M296.8,551.6c0,1.3,0,2.7-0.1,4.1c0,1.3-0.1,2.6-0.2,3.9v0.3c-0.1,1-0.1,1.9-0.2,2.9
		c-0.1,1.4-0.2,2.8-0.3,4.1c-0.1,0.9-0.2,1.8-0.3,2.7c-0.1,0.9-0.2,1.8-0.3,2.7c-0.2,1.2-0.3,2.5-0.5,3.7
		c-1.3,8.4-3.3,16.6-5.9,24.4c-0.4,1.2-0.8,2.3-1.2,3.4c-0.4,1.3-0.9,2.6-1.4,3.8c-1.6,4.2-3.4,8.3-5.3,12.3
		c-0.4,0.8-0.8,1.6-1.2,2.5c-0.3,0.5-0.5,1-0.8,1.5c-0.5,0.9-0.9,1.8-1.4,2.7c-2.5,4.6-5.2,9-8.1,13.2c-0.7,1-1.3,1.9-2,2.9
		c-2.2,3.1-4.5,6.1-6.9,9c-0.8,1-1.6,1.9-2.5,2.9c-0.6,0.7-1.2,1.4-1.8,2.1c-0.8,0.9-1.6,1.7-2.4,2.6c-1.2,1.2-2.3,2.5-3.6,3.7
		c-16.3,4.4-33.5,6.7-51.2,6.7c-54.8,0-104.4-22.2-140.3-58.1c1.6,0.5,3.3,0.9,5,1.3c3.4,0.8,6.7,1.5,10.1,2c0,0,0.1,0,0.1,0
		c1.7,0.3,3.4,0.5,5.1,0.8c1.7,0.2,3.4,0.4,5.1,0.6c1.4,0.2,2.7,0.2,4.1,0.3c0.8,0.1,1.5,0.1,2.2,0.2c3.1,0.2,6.1,0.3,9.2,0.3
		c6.7,0,13.4-0.4,20-1.3c3.3-0.4,6.7-1,10-1.6c16.6-3.2,33-9.3,48.4-18.2c1.1-0.6,2.2-1.3,3.2-1.9c1.1-0.7,2.2-1.3,3.2-2
		c0.9-0.6,1.9-1.2,2.8-1.8c0.1-0.1,0.2-0.2,0.4-0.2c1-0.7,2-1.4,2.9-2c0.4-0.3,0.7-0.5,1.1-0.8c1.3-0.9,2.6-1.9,3.8-2.8
		c0.2-0.1,0.3-0.2,0.4-0.3c0.7-0.5,1.3-1,2-1.6c2.1-1.7,4.2-3.4,6.2-5.2c0.7-0.6,1.3-1.2,1.9-1.7c1.5-1.3,2.9-2.7,4.3-4.1
		c0.9-0.8,1.7-1.7,2.5-2.6c0.4-0.4,0.8-0.8,1.3-1.3c1-1,1.9-2.1,2.9-3.2c0.5-0.6,1-1.2,1.5-1.7c1.9-2.2,3.7-4.4,5.4-6.6
		c0.4-0.5,0.8-1.1,1.2-1.6c1-1.4,2-2.7,3-4.2c0.4-0.6,0.8-1.2,1.3-1.9c0.6-0.9,1.2-1.8,1.8-2.7c0.4-0.6,0.7-1.2,1.1-1.8
		c0.3-0.5,0.6-0.9,0.9-1.4c0.6-1,1.2-1.9,1.7-2.9c0.8-1.4,1.7-2.9,2.5-4.4c0.4-0.8,0.8-1.5,1.2-2.3c0.4-0.8,0.7-1.5,1.2-2.2
		c0.8-1.5,1.5-3,2.2-4.6c0.4-0.8,0.7-1.5,1.1-2.3c1-2.3,2-4.7,2.9-7c0.3-0.8,0.6-1.6,0.9-2.3c0.6-1.5,1.1-3.1,1.6-4.6
		c0.2-0.4,0.3-0.8,0.4-1.2c6.5-19.8,9-40.9,7.2-62c0.8,0.9,1.6,1.7,2.3,2.6c0.8,0.9,1.5,1.8,2.3,2.7c1.5,1.8,2.9,3.6,4.3,5.5
		c0,0,0,0.1,0,0.1c1.4,1.9,2.8,3.8,4.1,5.7c0.7,1,1.3,2,2,3c0.6,1,1.2,2,1.9,3c0.6,1,1.2,2,1.8,3c1.2,2,2.3,4.1,3.4,6.1c0,0,0,0,0,0
		c0.3,0.7,0.7,1.3,1,2c1.8,3.6,3.5,7.2,5,10.9c0.9,2.1,1.7,4.1,2.5,6.3c0.1,0.4,0.2,0.7,0.4,1.1c1.1,3.2,2.2,6.3,3.1,9.5
		c1,3.5,1.9,7,2.7,10.5c0.2,1.2,0.5,2.4,0.7,3.6c0.2,1.2,0.5,2.4,0.7,3.6c0.2,1.2,0.4,2.3,0.6,3.5c0,0.2,0,0.3,0.1,0.5
		c0.1,1.1,0.2,2.1,0.4,3.2c0.3,2.8,0.6,5.7,0.8,8.6c0.1,0.9,0.1,1.8,0.2,2.7c0.1,1.2,0.1,2.3,0.2,3.5v0.4
		C296.8,549.2,296.8,550.4,296.8,551.6z"/>
</g>
</svg>
