<?xml version="1.0" encoding="UTF-8" standalone="no"?>
<svg width="116px" height="42px" viewBox="0 0 116 42" version="1.1" xmlns="http://www.w3.org/2000/svg" xmlns:xlink="http://www.w3.org/1999/xlink" xmlns:sketch="http://www.bohemiancoding.com/sketch/ns">
    <!-- Generator: Sketch 3.3.3 (12072) - http://www.bohemiancoding.com/sketch -->
    <title>netra-logo</title>
    <desc>Created with Sketch.</desc>
    <defs></defs>
    <g id="Official" stroke="none" stroke-width="1" fill="none" fill-rule="evenodd" sketch:type="MSPage">
        <g id="Home-2.0(1440)" sketch:type="MSArtboardGroup" transform="translate(-50.000000, -14.000000)" fill="#FFFFFF">
            <g id="Navi---Transparent" sketch:type="MSLayerGroup">
                <path d="M93.5261926,32.5972324 C93.5261926,30.7544027 93.4602895,29.2078019 93.3946098,27.8258025 L96.9151316,27.8258025 L97.1126175,30.2275799 L97.2116733,30.2275799 C97.9358926,28.9772527 99.6793091,27.4634471 102.344922,27.4634471 C105.142342,27.4634471 108.037566,29.2734816 108.037566,34.3410957 L108.037566,43.8510263 L103.989775,43.8510263 L103.989775,34.8017026 C103.989775,32.498266 103.134866,30.7544027 100.930351,30.7544027 C99.3176239,30.7544027 98.1988348,31.9057635 97.7712465,33.1235637 C97.6391722,33.4531239 97.5732691,33.9463919 97.5732691,34.4067307 L97.5732691,43.8510263 L93.5261926,43.8510263 L93.5261926,32.5972324 Z M115.415766,36.9734223 C115.514196,39.8688699 117.751819,41.1197333 120.351752,41.1197333 C122.227198,41.1197333 123.543473,40.8235044 124.793845,40.3956927 L125.386303,43.1598255 C124.003857,43.7521046 122.095392,44.1798717 119.791866,44.1798717 C114.592937,44.1798717 111.532799,40.9881505 111.532799,36.0852271 C111.532799,31.642866 114.230805,27.4634471 119.363831,27.4634471 C124.563788,27.4634471 126.274275,31.7413409 126.274275,35.2626223 C126.274275,36.0192346 126.20864,36.6115137 126.143452,36.9734223 L115.415766,36.9734223 Z M122.457748,34.1438779 C122.490319,32.6624206 121.832003,30.2275799 119.133729,30.2275799 C116.632762,30.2275799 115.579876,32.498266 115.415766,34.1438779 L122.457748,34.1438779 Z M134.511672,23.7123313 L134.511672,27.8258025 L138.361754,27.8258025 L138.361754,30.8528776 L134.511672,30.8528776 L134.511672,37.9275207 C134.511672,39.9021566 135.03845,40.8894075 136.58456,40.8894075 C137.308868,40.8894075 137.703394,40.8558528 138.164045,40.7247614 L138.229948,43.7848998 C137.63749,44.0149575 136.55172,44.2129349 135.301393,44.2129349 C133.787855,44.2129349 132.570368,43.7189967 131.813487,42.896928 C130.924979,41.9748653 130.530231,40.4944357 130.530231,38.388619 L130.530231,30.8528776 L128.259589,30.8528776 L128.259589,27.8258025 L130.530231,27.8258025 L130.530231,24.8313885 L134.511672,23.7123313 Z M141.458128,32.9919362 C141.458128,30.8200377 141.424797,29.240597 141.326322,27.8258025 L144.814496,27.8258025 L144.979186,30.8528776 L145.07717,30.8528776 C145.867605,28.6158356 147.742783,27.4634471 149.487406,27.4634471 C149.881842,27.4634471 150.112435,27.4967784 150.441057,27.5626815 L150.441057,31.3468605 C150.079059,31.280734 149.71724,31.247626 149.223481,31.247626 C147.315239,31.247626 145.966303,32.4654261 145.603992,34.3082558 C145.538,34.6699411 145.505428,35.0977081 145.505428,35.5257879 L145.505428,43.8510263 L141.458128,43.8510263 L141.458128,32.9919362 Z M165.735896,40.0009442 C165.735896,41.4488021 165.801844,42.863552 166,43.8510263 L162.346868,43.8510263 L162.050862,42.0738763 L161.952164,42.0738763 C160.997574,43.3244716 159.319659,44.2129349 157.213574,44.2129349 C153.988834,44.2129349 152.179291,41.8763904 152.179291,39.4415497 C152.179291,35.4267769 155.765984,33.3538894 161.688551,33.3867293 L161.688551,33.1235637 C161.688551,32.0704543 161.261455,30.3263229 158.431151,30.3263229 C156.851755,30.3263229 155.206366,30.8200377 154.12064,31.5110151 L153.330652,28.8787331 C154.515121,28.1549159 156.588768,27.4634471 159.121636,27.4634471 C164.25569,27.4634471 165.735896,30.7215628 165.735896,34.2426208 L165.735896,40.0009442 Z M161.788054,36.0192346 C158.924642,35.9861714 156.193349,36.5789419 156.193349,39.014006 C156.193349,40.5931339 157.213574,41.3169958 158.49683,41.3169958 C160.142174,41.3169958 161.293803,40.2638418 161.688551,39.1125256 C161.788054,38.8157159 161.788054,38.5200231 161.788054,38.2240623 L161.788054,36.0192346 Z M76.3723486,45.6478492 C69.7334553,50.4683955 61.8559892,54.0483591 51.8556779,55.5047628 L51.8556779,47.5691793 C53.6833164,48.2210169 54.7284727,48.8828182 56.4339112,49.095272 C78.1812229,51.8055653 76.7700921,18.1742919 56.4339112,21.0127724 C54.9432945,21.2216071 53.8713301,21.55358 52.1607981,22.5400714 C52.1027215,22.3572982 52.0543369,22.1662803 52.0142105,21.9681038 C52.0129571,21.9686866 52.0117035,21.9692697 52.0104497,21.9698531 C51.5430514,19.7284324 52.0374811,16.5234413 51.8529971,14 C67.8574894,17.0217135 79.5337781,24.3713624 87.8713035,35.0611598 C84.3930491,38.947254 80.6375547,42.5574041 76.3705182,45.6546716 C76.3711287,45.6523976 76.3717389,45.6501235 76.3723486,45.6478492 L76.3723486,45.6478492 Z M50.3574196,32.5954299 C51.170131,29.8448947 53.3038464,27.661212 56.0238602,26.7790874 C54.9176219,28.0285181 54.2460619,29.6716817 54.2460619,31.4716966 C54.2460619,34.1387375 55.7203827,36.4614324 57.8984896,37.6692465 C56.4433579,37.8898848 54.9061459,37.6365565 53.5324518,36.8434539 C51.8713289,35.8844041 50.7741973,34.323639 50.3574196,32.5954299 L50.3574196,32.5954299 Z M52.3940527,41.0690073 C50.418375,38.989911 49.594108,36.050218 50.1901726,33.2535545 C50.7190922,34.8363004 51.8063336,36.2394702 53.3651922,37.1394776 C55.6749174,38.4729981 58.4235906,38.3575463 60.5586417,37.0751575 C60.0221543,38.4456576 59.0341596,39.6502581 57.6604655,40.4433608 C55.9993425,41.4024105 54.0991145,41.5721718 52.3940527,41.0690073 L52.3940527,41.0690073 Z M60.7507025,43.5420201 C57.9623135,44.213459 55.0043311,43.4574486 52.8803818,41.5429098 C54.5155397,41.8762249 56.2743412,41.6362311 57.8331998,40.7362237 C60.142925,39.4027032 61.4172773,36.9645565 61.3742216,34.4743536 C62.2928658,35.6242154 62.8420831,37.0821442 62.8420831,38.6683495 C62.8420831,40.5864491 62.0389866,42.3169755 60.7507025,43.5420201 L60.7507025,43.5420201 Z M67.0707193,37.5414554 C66.2580079,40.2919906 64.1242925,42.4756732 61.4042787,43.3577979 C62.510517,42.1083672 63.182077,40.4652036 63.182077,38.6651887 C63.182077,35.9981478 61.7077562,33.6754529 59.5296493,32.4676388 C60.984781,32.2470005 62.521993,32.5003288 63.8956871,33.2934314 C65.55681,34.2524812 66.6539416,35.8132463 67.0707193,37.5414554 L67.0707193,37.5414554 Z M65.0340862,29.067878 C67.0097639,31.1469743 67.8340309,34.0866673 67.2379663,36.8833308 C66.7090467,35.3005849 65.6218053,33.8974151 64.0629467,32.9974077 C61.7532215,31.6638872 59.0045483,31.779339 56.8694972,33.0617278 C57.4059846,31.6912277 58.3939793,30.4866272 59.7676734,29.6935245 C61.4287964,28.7344747 63.3290244,28.5647135 65.0340862,29.067878 L65.0340862,29.067878 Z M56.6774364,26.5948652 C59.4658254,25.9234263 62.4238078,26.6794367 64.5477571,28.5939755 C62.9125992,28.2606604 61.1537977,28.5006542 59.5949391,29.4006616 C57.2852139,30.7341821 56.0108616,33.1723288 56.0539173,35.6625317 C55.1352731,34.5126699 54.5860558,33.0547411 54.5860558,31.4685358 C54.5860558,29.5504362 55.3891523,27.8199098 56.6774364,26.5948652 L56.6774364,26.5948652 Z" id="netra-logo" sketch:type="MSShapeGroup"></path>
            </g>
        </g>
    </g>
</svg>