<?xml version="1.0" encoding="UTF-8" standalone="no"?>
<svg width="160px" height="160px" viewBox="0 0 160 160" version="1.1" xmlns="http://www.w3.org/2000/svg" xmlns:xlink="http://www.w3.org/1999/xlink" xmlns:sketch="http://www.bohemiancoding.com/sketch/ns">
    <!-- Generator: Sketch 3.3.3 (12072) - http://www.bohemiancoding.com/sketch -->
    <title>Profile</title>
    <desc>Created with Sketch.</desc>
    <defs>
        <circle id="path-1" cx="80" cy="80" r="80"></circle>
    </defs>
    <g id="Logo-and-Icons" stroke="none" stroke-width="1" fill="none" fill-rule="evenodd" sketch:type="MSPage">
        <g id="Outline-Icons" sketch:type="MSArtboardGroup" transform="translate(-1446.000000, -1778.000000)">
            <g id="Profile" sketch:type="MSLayerGroup" transform="translate(1446.000000, 1778.000000)">
                <mask id="mask-2" sketch:name="Mask" fill="white">
                    <use xlink:href="#path-1"></use>
                </mask>
                <use id="Mask" fill="#D8D8D8" sketch:type="MSShapeGroup" xlink:href="#path-1"></use>
                <path d="M76.616,107.232 L80.648,107.232 C77.768,84.624 102.248,75.264 102.248,55.392 C102.248,43.584 94.472,33.792 80.648,33.792 C70.856,33.792 63.656,38.688 58.184,44.736 L61.064,47.328 C65.96,41.28 73.16,37.824 80.36,37.824 C92.456,37.824 97.64,46.464 97.64,55.68 C97.64,74.4 73.448,82.752 76.616,107.232 L76.616,107.232 Z M74.024,128.256 C74.024,131.712 76.616,133.728 79.208,133.728 C81.8,133.728 84.392,131.712 84.392,128.256 C84.392,124.512 81.8,122.496 79.208,122.496 C76.616,122.496 74.024,124.512 74.024,128.256 L74.024,128.256 Z" id="?" fill="#9B9B9B" sketch:type="MSShapeGroup" mask="url(#mask-2)"></path>
            </g>
        </g>
    </g>
</svg>